<?xml version="1.0" standalone="no"?>
<!DOCTYPE svg PUBLIC "-//W3C//DTD SVG 1.1//EN" "http://www.w3.org/Graphics/SVG/1.1/DTD/svg11.dtd" >
<svg xmlns="http://www.w3.org/2000/svg" xmlns:xlink="http://www.w3.org/1999/xlink" version="1.1">
<metadata>
Created by FontForge 20201107 at Tue Feb  4 00:45:00 2020
 By Unknown
Straight-sided six and nine
</metadata>
<defs>
<font id="SFProIcons-Regular" horiz-adv-x="2397" >
  <font-face 
    font-family="SF Pro Icons"
    font-weight="400"
    font-stretch="normal"
    units-per-em="2048"
    panose-1="0 0 0 0 0 0 0 0 0 0"
    ascent="1554"
    descent="-494"
    bbox="100 -494 2295 1950"
    underline-thickness="120"
    underline-position="-370"
    unicode-range="U+EA07-100076"
  />
<missing-glyph horiz-adv-x="2048" 
d="M100 1666v284h1848v-284h-1848zM100 1234v284h1848v-284h-1848zM100 802v284h1848v-284h-1848zM100 370v284h1848v-284h-1848zM100 -62v284h1848v-284h-1848zM100 -494v284h1848v-284h-1848z" />
    <glyph glyph-name=".notdef" horiz-adv-x="2048" 
d="M100 1666v284h1848v-284h-1848zM100 1234v284h1848v-284h-1848zM100 802v284h1848v-284h-1848zM100 370v284h1848v-284h-1848zM100 -62v284h1848v-284h-1848zM100 -494v284h1848v-284h-1848z" />
    <glyph glyph-name="glyph1" horiz-adv-x="0" 
 />
    <glyph glyph-name="glyph2" horiz-adv-x="0" 
 />
    <glyph glyph-name="uniEA07" unicode="&#xea07;" 
d="M1199 -298q-209 0 -393.5 80t-325.5 221t-221 325.5t-80 393.5t80 393.5t220.5 325.5t325 221t393.5 80t394 -80t326 -221t221 -325.5t80 -393.5t-80 -393.5t-221 -325.5t-325.5 -221t-393.5 -80zM1016 336l562 332q31 19 30.5 53.5t-30.5 52.5l-562 333
q-32 19 -65.5 6.5t-33.5 -47.5v-688q0 -35 32.5 -48.5t66.5 6.5z" />
    <glyph glyph-name="uniEA08" unicode="&#xea08;" 
d="M1199 -298q-209 0 -393.5 80t-325.5 221t-221 325.5t-80 393.5t80 393.5t220.5 325.5t325 221t393.5 80t394 -80t326 -221t221 -325.5t80 -393.5t-80 -393.5t-221 -325.5t-325.5 -221t-393.5 -80zM937 361h91q66 0 66 61v599q0 61 -66 61h-91q-67 0 -67 -61v-599
q0 -61 67 -61zM1369 361h91q66 0 66 61v599q0 61 -66 61h-91q-67 0 -67 -61v-599q0 -61 67 -61z" />
    <glyph glyph-name="uniEA09" unicode="&#xea09;" 
d="M1199 -298q-209 0 -393.5 80t-325.5 221t-221 325.5t-80 393.5t80 393.5t220.5 325.5t325 221t393.5 80t394 -80t326 -221t221 -325.5t80 -393.5t-80 -393.5t-221 -325.5t-325.5 -221t-393.5 -80zM862 475q0 -42 24.5 -66t67.5 -24h488q43 0 67.5 24t24.5 66v492
q0 42 -24.5 66t-67.5 24h-488q-43 0 -67.5 -24t-24.5 -66v-492z" />
    <glyph glyph-name="uniEA14" unicode="&#xea14;" 
d="M1199 -298q-209 0 -393.5 80t-325.5 221t-221 325.5t-80 393.5t80 393.5t220.5 325.5t325 221t393.5 80t394 -80t326 -221t221 -325.5t80 -393.5t-80 -393.5t-221 -325.5t-325.5 -221t-393.5 -80zM1190 1078q55 0 92.5 38.5t37.5 92.5q0 55 -37.5 93t-92.5 38
q-54 0 -92 -38t-38 -93q0 -54 38 -92.5t92 -38.5zM1023 172h407q31 0 52 20t21 51q0 29 -21 49.5t-52 20.5h-124v509q0 41 -20 65.5t-58 24.5h-188q-31 0 -52 -20.5t-21 -49.5q0 -31 21 -51t52 -20h107v-458h-124q-31 0 -52 -20.5t-21 -49.5q0 -31 21 -51t52 -20z" />
    <glyph glyph-name="uniEA15" unicode="&#xea15;" horiz-adv-x="2500" 
d="M480 -223q-127 0 -201.5 80t-74.5 196q0 71 37 135l771 1344q39 68 103.5 104t134.5 36q71 0 134.5 -36t102.5 -104l771 -1343q37 -64 37 -136q0 -116 -74 -196t-202 -80h-1539zM482 -66h1534q52 0 84.5 36.5t32.5 82.5q0 32 -15 58l-769 1344q-16 29 -43 43t-56 14
t-56.5 -14t-44.5 -43l-770 -1343q-7 -15 -10 -30t-3 -29q0 -46 32 -82.5t84 -36.5zM1250 451q-79 0 -79 79l-13 529q0 38 25.5 63t65.5 25t66 -25.5t26 -63.5l-14 -528q0 -79 -77 -79zM1250 126q-43 0 -75.5 30.5t-32.5 73.5t32 73.5t76 30.5t76 -30t32 -74q0 -43 -32 -73.5
t-76 -30.5z" />
    <glyph glyph-name="uniEA16" unicode="&#xea16;" horiz-adv-x="2468" 
d="M448 -189q-112 0 -178 71t-66 174q0 62 33 119l786 1408q34 62 92 93t119 31q62 0 119 -31.5t91 -92.5l787 -1408q32 -55 32 -120q0 -103 -65.5 -173.5t-178.5 -70.5h-1571zM1234 496q79 0 82 84l15 493q2 41 -27 68t-71 27q-43 0 -70.5 -26.5t-26.5 -67.5l14 -494
q3 -84 84 -84zM1234 127q44 0 78 30.5t34 77.5t-34 77.5t-78 30.5t-78 -30.5t-34 -77.5q0 -46 34.5 -77t77.5 -31z" />
    <glyph glyph-name="uniEA1C" unicode="&#xea1c;" horiz-adv-x="1694" 
d="M200 256v932q0 86 49 133.5t136 47.5h924q87 0 136 -47.5t49 -133.5v-932q0 -85 -49 -133t-136 -48h-924q-87 0 -136 48t-49 133z" />
    <glyph glyph-name="uniEA1D" unicode="&#xea1d;" horiz-adv-x="1837" 
d="M788 265q-126 0 -236 47.5t-193.5 131t-131 193.5t-47.5 236t47.5 236t131 193.5t193.5 131t236 47.5t236 -47.5t193.5 -131t131 -193.5t47.5 -236q0 -101 -31.5 -193t-87.5 -168l352 -353q27 -27 27 -70q0 -41 -27 -69.5t-69 -28.5q-43 0 -71 28l-355 355
q-73 -52 -161.5 -80.5t-184.5 -28.5zM788 414q126 0 230 62.5t166.5 167t62.5 229.5q0 126 -62.5 230t-166.5 166.5t-230 62.5q-125 0 -229.5 -62.5t-167 -166.5t-62.5 -230q0 -125 62.5 -229.5t167 -167t229.5 -62.5z" />
    <glyph glyph-name="uniEA1E" unicode="&#xea1e;" horiz-adv-x="2002" 
d="M1001 1191q-32 0 -53.5 24t-21.5 60v131l-95 -55q-30 -17 -63 -11t-48 34q-15 29 -6 59t40 48l175 100q72 40 144 0l175 -100q32 -18 40.5 -48t-6.5 -59q-15 -28 -48 -34t-63 11l-95 55v-131q0 -36 -21.5 -60t-53.5 -24zM1730 780q-31 0 -51 24.5t-20 60.5v130l-139 -81
q-29 -16 -59.5 -9.5t-49.5 34.5q-18 27 -6.5 58.5t44.5 50.5l126 72l-115 66q-34 20 -44.5 52t7.5 60q18 27 48 32.5t58 -10.5l164 -94q62 -35 85.5 -74.5t23.5 -120.5v-167q0 -36 -20.5 -60t-51.5 -24zM272 780q-31 0 -51 23.5t-20 59.5v167q0 74 27.5 119t81.5 76l164 94
q28 16 58 10.5t48 -32.5q18 -28 7.5 -60t-44.5 -52l-115 -66l126 -72q33 -19 44.5 -50.5t-6.5 -58.5q-19 -28 -49.5 -34.5t-59.5 9.5l-139 81v-130q0 -36 -20 -60t-52 -24zM1001 414q-32 0 -53.5 24t-21.5 60v160l-151 88q-32 19 -43 50.5t7 58.5q18 28 48.5 35t60.5 -10
l153 -87l153 87q30 17 60.5 10t48.5 -35q18 -27 7 -58.5t-43 -50.5l-151 -88v-160q0 -36 -21.5 -60t-53.5 -24zM413 159l-91 53q-58 33 -89.5 76.5t-31.5 138.5v115q0 36 20.5 60t51.5 24t51.5 -24t20.5 -60v-85l116 67q30 17 60.5 10t48.5 -35q18 -27 7 -58.5t-43 -50.5
l-109 -64l65 -37q29 -16 39 -47t-5 -60q-15 -28 -47 -34.5t-64 11.5zM1589 159q-31 -18 -63 -11.5t-47 34.5q-15 29 -5 60t39 47l65 37l-109 64q-32 19 -43 50.5t7 58.5q18 28 48.5 35t60.5 -10l116 -67v85q0 36 20.5 60t51.5 24q32 0 52 -24t20 -60v-115
q0 -95 -31.5 -138.5t-89.5 -76.5zM930 -137l-223 129q-32 19 -40.5 49t6.5 58t47 34.5t63 -11.5l144 -84v147q0 36 21.5 60t53.5 24t53.5 -24t21.5 -60v-147l144 84q31 18 63 11.5t47 -34.5t6.5 -58t-40.5 -49l-225 -129q-71 -41 -142 0z" />
    <glyph glyph-name="uniF300" unicode="&#xf300;" horiz-adv-x="905" 
d="M629 18l-455 454q-24 24 -24 56q0 34 24 56l455 454q21 21 52 21q32 0 53.5 -21t21.5 -53q0 -31 -23 -54l-404 -403l404 -403q23 -23 23 -54t-21.5 -52.5t-53.5 -21.5q-31 0 -52 21z" />
    <glyph glyph-name="uniF301" unicode="&#xf301;" horiz-adv-x="905" 
d="M224 -3q-31 0 -53 21.5t-22 52.5t23 54l404 403l-404 403q-23 23 -23 54q0 32 22 53t53 21t52 -21l455 -454q24 -22 24 -56q0 -32 -24 -56l-455 -454q-21 -21 -52 -21z" />
    <glyph glyph-name="uniF302" unicode="&#xf302;" horiz-adv-x="1361" 
d="M171 389l454 455q24 24 56 24q34 0 56 -24l454 -455q21 -19 21 -52q0 -31 -21 -53t-53 -22q-33 0 -54 23l-403 404l-403 -404q-23 -23 -54 -23t-52.5 22t-21.5 53t21 52z" />
    <glyph glyph-name="uniF303" unicode="&#xf303;" horiz-adv-x="1361" 
d="M680 208q-32 0 -56 24l-454 455q-21 21 -21 52q0 32 21.5 53.5t52.5 21.5t54 -23l403 -404l403 404q23 23 54 23q32 0 53 -21.5t21 -53.5q0 -31 -21 -52l-454 -455q-22 -24 -56 -24z" />
    <glyph glyph-name="uniF304" unicode="&#xf304;" 
d="M1199 -298q-209 0 -393.5 80t-325.5 221t-221 325.5t-80 393.5t80 393.5t220.5 325.5t325 221t393.5 80t394 -80t326 -221t221 -325.5t80 -393.5t-80 -393.5t-221 -325.5t-325.5 -221t-393.5 -80zM1199 -128q177 0 331 65.5t270.5 182.5t182.5 271t66 331t-66 331
t-182.5 271t-271 182.5t-331.5 65.5t-331 -65.5t-270 -182.5t-181.5 -271t-65.5 -331t65.5 -331t182 -271t270.5 -182.5t331 -65.5zM1397 227q-20 -19 -53 -17.5t-54 20.5l-416 393q-42 39 -42.5 98.5t42.5 98.5l416 393q23 21 53.5 22.5t52.5 -19.5q23 -22 24 -54.5
t-22 -53.5l-411 -386l411 -387q23 -21 22.5 -53t-23.5 -55z" />
    <glyph glyph-name="uniF305" unicode="&#xf305;" 
d="M1199 -298q-209 0 -393.5 80t-325.5 221t-221 325.5t-80 393.5t80 393.5t220.5 325.5t325 221t393.5 80t394 -80t326 -221t221 -325.5t80 -393.5t-80 -393.5t-221 -325.5t-325.5 -221t-393.5 -80zM1199 -128q177 0 331 65.5t270.5 182.5t182.5 271t66 331t-66 331
t-182.5 271t-271 182.5t-331.5 65.5t-331 -65.5t-270 -182.5t-181.5 -271t-65.5 -331t65.5 -331t182 -271t270.5 -182.5t331 -65.5zM965 227q-22 22 -22.5 54.5t21.5 53.5l411 387l-411 386q-23 21 -22 53.5t24 54.5q22 21 52.5 19.5t53.5 -22.5l416 -393q43 -39 42.5 -98.5
t-42.5 -98.5l-416 -393q-21 -19 -54 -20.5t-53 17.5z" />
    <glyph glyph-name="uniF306" unicode="&#xf306;" 
d="M1199 -298q-209 0 -393.5 80t-325.5 221t-221 325.5t-80 393.5t80 393.5t220.5 325.5t325 221t393.5 80t394 -80t326 -221t221 -325.5t80 -393.5t-80 -393.5t-221 -325.5t-325.5 -221t-393.5 -80zM1199 -128q177 0 331 65.5t270.5 182.5t182.5 271t66 331t-66 331
t-182.5 271t-271 182.5t-331.5 65.5t-331 -65.5t-270 -182.5t-181.5 -271t-65.5 -331t65.5 -331t182 -271t270.5 -182.5t331 -65.5zM1298 1011l393 -416q22 -24 23 -54.5t-20 -51.5q-22 -24 -54.5 -24.5t-53.5 22.5l-387 410l-387 -410q-21 -23 -53 -22.5t-55 24.5
q-21 21 -20 51.5t23 54.5l393 416q47 50 99.5 50t98.5 -50z" />
    <glyph glyph-name="uniF307" unicode="&#xf307;" 
d="M1199 -298q-209 0 -393.5 80t-325.5 221t-221 325.5t-80 393.5t80 393.5t220.5 325.5t325 221t393.5 80t394 -80t326 -221t221 -325.5t80 -393.5t-80 -393.5t-221 -325.5t-325.5 -221t-393.5 -80zM1199 -128q177 0 331 65.5t270.5 182.5t182.5 271t66 331t-66 331
t-182.5 271t-271 182.5t-331.5 65.5t-331 -65.5t-270 -182.5t-181.5 -271t-65.5 -331t65.5 -331t182 -271t270.5 -182.5t331 -65.5zM1298 430q-47 -49 -99 -49.5t-99 49.5l-393 416q-22 24 -23 54.5t20 51.5q23 24 55 24.5t53 -22.5l387 -410l387 410q21 23 53.5 22.5
t54.5 -24.5q21 -21 20 -51.5t-23 -54.5z" />
    <glyph glyph-name="uniF308" unicode="&#xf308;" horiz-adv-x="1456" 
d="M223 144l391 391l-391 390q-23 23 -23.5 57t23.5 57q23 24 57 23.5t57 -23.5l391 -390l390 390q23 23 57 23.5t57 -23.5q24 -23 23.5 -57t-23.5 -57l-390 -390l390 -391q23 -23 23.5 -57t-23.5 -57q-23 -24 -57 -23.5t-57 23.5l-390 391l-391 -391q-23 -23 -57 -23.5
t-57 23.5q-24 23 -23.5 57t23.5 57z" />
    <glyph glyph-name="uniF309" unicode="&#xf309;" horiz-adv-x="1375" 
d="M688 0q-31 0 -52.5 22t-21.5 51v389h-379q-29 0 -51.5 22t-22.5 52t22.5 52t51.5 22h379v390q0 29 22 51t52 22t52 -22t22 -51v-390h379q29 0 51.5 -22t22.5 -52t-22.5 -52t-51.5 -22h-379v-389q0 -29 -22 -51t-52 -22z" />
    <glyph glyph-name="uniF30A" unicode="&#xf30a;" horiz-adv-x="1375" 
d="M234 461q-29 0 -51.5 22t-22.5 52t22.5 52t51.5 22h907q29 0 51.5 -22t22.5 -52t-22.5 -52t-51.5 -22h-907z" />
    <glyph glyph-name="uniF30B" unicode="&#xf30b;" horiz-adv-x="1536" 
d="M689 36q-48 0 -86 45l-279 346q-23 31 -23 63q0 34 22.5 57t55.5 23q43 0 74 -41l232 -300l451 723q28 46 70 46q32 0 57 -19.5t25 -54.5q0 -16 -7 -33t-17 -31l-494 -777q-32 -47 -81 -47z" />
    <glyph glyph-name="uniF30C" unicode="&#xf30c;" horiz-adv-x="649" 
d="M326 405q-35 0 -57.5 21.5t-22.5 58.5l-10 890q0 39 27 62.5t63 23.5t63 -23.5t27 -62.5l-9 -890q0 -37 -23 -58.5t-58 -21.5zM325 -34q-52 0 -88.5 36.5t-36.5 88.5q0 53 36.5 89t88.5 36q53 0 89 -36t36 -89q0 -52 -36 -88.5t-89 -36.5z" />
    <glyph glyph-name="uniF30D" unicode="&#xf30d;" horiz-adv-x="1271" 
d="M597 404q-47 0 -71.5 28.5t-24.5 71.5v41q0 105 65 180t153 136q68 47 115.5 97t47.5 135q0 95 -74.5 149.5t-183.5 54.5q-86 0 -150.5 -38.5t-98.5 -145.5q-21 -70 -90 -70q-42 0 -63.5 24.5t-21.5 62.5q0 25 6 52.5t19 55.5q54 113 164 170t242 57q122 0 221.5 -43
t159 -126t59.5 -205q0 -117 -61.5 -201t-159.5 -149q-61 -41 -95.5 -72.5t-49.5 -65.5t-16 -84v-13q0 -43 -22.5 -72.5t-69.5 -29.5zM596 -34q-51 0 -88 36.5t-37 88.5q0 53 36.5 89t88.5 36q53 0 89 -36t36 -89q0 -52 -36 -88.5t-89 -36.5z" />
    <glyph glyph-name="uniF30E" unicode="&#xf30e;" 
d="M1199 -298q-209 0 -393.5 80t-325.5 221t-221 325.5t-80 393.5t80 393.5t220.5 325.5t325 221t393.5 80t394 -80t326 -221t221 -325.5t80 -393.5t-80 -393.5t-221 -325.5t-325.5 -221t-393.5 -80zM1199 -128q177 0 331 65.5t270.5 182.5t182.5 271t66 331t-66 331
t-182.5 271t-271 182.5t-331.5 65.5t-331 -65.5t-270 -182.5t-181.5 -271t-65.5 -331t65.5 -331t182 -271t270.5 -182.5t331 -65.5zM857 298q-34 0 -57 24t-23 57q0 34 24 56l284 285l-284 285q-24 23 -24 56t23 56t57 23q33 0 55 -23l286 -285l288 286q24 24 55 24
q34 0 57 -23.5t23 -56.5q0 -32 -24 -56l-285 -286l284 -284q24 -24 24 -57t-23 -57t-57 -24q-33 0 -57 24l-285 285l-284 -285q-22 -24 -57 -24z" />
    <glyph glyph-name="uniF30F" unicode="&#xf30f;" 
d="M1199 -298q-209 0 -393.5 80t-325.5 221t-221 325.5t-80 393.5t80 393.5t220.5 325.5t325 221t393.5 80t394 -80t326 -221t221 -325.5t80 -393.5t-80 -393.5t-221 -325.5t-325.5 -221t-393.5 -80zM1199 -128q177 0 331 65.5t270.5 182.5t182.5 271t66 331t-66 331
t-182.5 271t-271 182.5t-331.5 65.5t-331 -65.5t-270 -182.5t-181.5 -271t-65.5 -331t65.5 -331t182 -271t270.5 -182.5t331 -65.5zM1196 247q-40 0 -61 26t-21 68v296h-312q-42 0 -69 21t-27 61q0 41 26.5 63t69.5 22h312v314q0 42 21 68.5t61 26.5q41 0 63 -25.5t22 -69.5
v-314h313q44 0 69.5 -22t25.5 -63q0 -40 -26.5 -61t-68.5 -21h-313v-296q0 -43 -22 -68.5t-63 -25.5z" />
    <glyph glyph-name="uniF310" unicode="&#xf310;" 
d="M1199 -298q-209 0 -393.5 80t-325.5 221t-221 325.5t-80 393.5t80 393.5t220.5 325.5t325 221t393.5 80t394 -80t326 -221t221 -325.5t80 -393.5t-80 -393.5t-221 -325.5t-325.5 -221t-393.5 -80zM1199 -128q177 0 331 65.5t270.5 182.5t182.5 271t66 331t-66 331
t-182.5 271t-271 182.5t-331.5 65.5t-331 -65.5t-270 -182.5t-181.5 -271t-65.5 -331t65.5 -331t182 -271t270.5 -182.5t331 -65.5zM796 637q-42 0 -69 21t-27 61q0 41 26.5 63t69.5 22h804q44 0 69.5 -22t25.5 -63q0 -40 -26.5 -61t-68.5 -21h-804z" />
    <glyph glyph-name="uniF311" unicode="&#xf311;" 
d="M1199 -298q-209 0 -393.5 80t-325.5 221t-221 325.5t-80 393.5t80 393.5t220.5 325.5t325 221t393.5 80t394 -80t326 -221t221 -325.5t80 -393.5t-80 -393.5t-221 -325.5t-325.5 -221t-393.5 -80zM1199 -128q177 0 331 65.5t270.5 182.5t182.5 271t66 331t-66 331
t-182.5 271t-271 182.5t-331.5 65.5t-331 -65.5t-270 -182.5t-181.5 -271t-65.5 -331t65.5 -331t182 -271t270.5 -182.5t331 -65.5zM1073 222q-48 0 -86 45l-279 346q-23 31 -23 63q0 34 22.5 57t55.5 23q43 0 74 -41l232 -300l451 723q28 46 70 46q32 0 57 -19.5t25 -54.5
q0 -16 -7 -33t-17 -31l-494 -777q-32 -47 -81 -47z" />
    <glyph glyph-name="uniF312" unicode="&#xf312;" 
d="M1199 -298q-209 0 -393.5 80t-325.5 221t-221 325.5t-80 393.5t80 393.5t220.5 325.5t325 221t393.5 80t394 -80t326 -221t221 -325.5t80 -393.5t-80 -393.5t-221 -325.5t-325.5 -221t-393.5 -80zM1199 -128q177 0 331 65.5t270.5 182.5t182.5 271t66 331t-66 331
t-182.5 271t-271 182.5t-331.5 65.5t-331 -65.5t-270 -182.5t-181.5 -271t-65.5 -331t65.5 -331t182 -271t270.5 -182.5t331 -65.5zM1198 541q-79 0 -79 79l-13 529q0 38 25.5 63t65.5 25t66 -25.5t26 -63.5l-14 -528q0 -79 -77 -79zM1198 216q-43 0 -75.5 30.5t-32.5 73.5
t32 73.5t76 30.5t76 -30t32 -74q0 -43 -32 -73.5t-76 -30.5z" />
    <glyph glyph-name="uniF313" unicode="&#xf313;" 
d="M1199 -298q-209 0 -393.5 80t-325.5 221t-221 325.5t-80 393.5t80 393.5t220.5 325.5t325 221t393.5 80t394 -80t326 -221t221 -325.5t80 -393.5t-80 -393.5t-221 -325.5t-325.5 -221t-393.5 -80zM1199 -128q177 0 331 65.5t270.5 182.5t182.5 271t66 331t-66 331
t-182.5 271t-271 182.5t-331.5 65.5t-331 -65.5t-270 -182.5t-181.5 -271t-65.5 -331t65.5 -331t182 -271t270.5 -182.5t331 -65.5zM1178 515q-80 0 -80 79v13q0 74 35.5 119t89.5 82q66 46 98 78.5t32 83.5q0 57 -41.5 92.5t-109.5 35.5q-50 0 -86.5 -23.5t-61.5 -64.5
q-24 -28 -39.5 -48t-58.5 -20q-25 0 -47 17.5t-22 51.5q0 13 2.5 25.5t6.5 24.5q20 69 101.5 121t210.5 52q85 0 157.5 -29.5t116.5 -86.5t44 -140q0 -89 -46.5 -141.5t-119.5 -100.5q-52 -34 -77 -65t-25 -73v-12q0 -30 -21 -50.5t-59 -20.5zM1176 216q-43 0 -75.5 30.5
t-32.5 73.5t32 73.5t76 30.5t76 -30t32 -74q0 -43 -32 -73.5t-76 -30.5z" />
    <glyph glyph-name="uniF314" unicode="&#xf314;" 
d="M1199 -298q-209 0 -393.5 80t-325.5 221t-221 325.5t-80 393.5t80 393.5t220.5 325.5t325 221t393.5 80t394 -80t326 -221t221 -325.5t80 -393.5t-80 -393.5t-221 -325.5t-325.5 -221t-393.5 -80zM840 278q37 0 60 25l298 299l299 -299q25 -25 60 -25t60 25t25 60
q0 33 -25 60l-299 298l300 301q25 24 25 58q0 35 -25 59.5t-60 24.5q-34 0 -58 -25l-302 -300l-300 299q-22 24 -58 24q-35 0 -60 -24t-25 -59t25 -58l299 -300l-299 -300q-25 -23 -25 -58t25 -60t60 -25z" />
    <glyph glyph-name="uniF315" unicode="&#xf315;" 
d="M1199 -298q-209 0 -393.5 80t-325.5 221t-221 325.5t-80 393.5t80 393.5t220.5 325.5t325 221t393.5 80t394 -80t326 -221t221 -325.5t80 -393.5t-80 -393.5t-221 -325.5t-325.5 -221t-393.5 -80zM1196 224q42 0 65.5 27t23.5 72v311h329q44 0 71.5 22.5t27.5 63.5
q0 44 -26.5 66.5t-72.5 22.5h-329v331q0 45 -23.5 72t-65.5 27t-64.5 -27.5t-22.5 -71.5v-331h-328q-46 0 -73 -22.5t-27 -66.5q0 -41 28 -63.5t72 -22.5h328v-311q0 -43 22.5 -71t64.5 -28z" />
    <glyph glyph-name="uniF316" unicode="&#xf316;" 
d="M1199 -298q-209 0 -393.5 80t-325.5 221t-221 325.5t-80 393.5t80 393.5t220.5 325.5t325 221t393.5 80t394 -80t326 -221t221 -325.5t80 -393.5t-80 -393.5t-221 -325.5t-325.5 -221t-393.5 -80zM776 633h845q44 0 71.5 22.5t27.5 64.5q0 44 -26.5 66.5t-72.5 22.5h-845
q-46 0 -73 -22.5t-27 -66.5q0 -42 28 -64.5t72 -22.5z" />
    <glyph glyph-name="uniF317" unicode="&#xf317;" 
d="M1199 -298q-209 0 -393.5 80t-325.5 221t-221 325.5t-80 393.5t80 393.5t220.5 325.5t325 221t393.5 80t394 -80t326 -221t221 -325.5t80 -393.5t-80 -393.5t-221 -325.5t-325.5 -221t-393.5 -80zM1061 209q50 0 84 51l509 800q10 15 17.5 32.5t7.5 33.5q0 36 -26.5 56.5
t-59.5 20.5q-43 0 -72 -47l-464 -745l-239 309q-33 42 -77 42q-34 0 -57.5 -24t-23.5 -59t24 -65l288 -356q40 -49 89 -49z" />
    <glyph glyph-name="uniF318" unicode="&#xf318;" 
d="M1199 -298q-209 0 -393.5 80t-325.5 221t-221 325.5t-80 393.5t80 393.5t220.5 325.5t325 221t393.5 80t394 -80t326 -221t221 -325.5t80 -393.5t-80 -393.5t-221 -325.5t-325.5 -221t-393.5 -80zM1198 572q79 0 82 84l15 493q2 41 -27 68t-71 27q-43 0 -70.5 -26.5
t-26.5 -67.5l14 -494q3 -84 84 -84zM1198 204q43 0 77.5 30.5t34.5 77.5t-34 77.5t-78 30.5t-78 -30.5t-34 -77.5q0 -46 34.5 -77t77.5 -31z" />
    <glyph glyph-name="uniF319" unicode="&#xf319;" 
d="M1199 -298q-209 0 -393.5 80t-325.5 221t-221 325.5t-80 393.5t80 393.5t220.5 325.5t325 221t393.5 80t394 -80t326 -221t221 -325.5t80 -393.5t-80 -393.5t-221 -325.5t-325.5 -221t-393.5 -80zM1180 505q39 0 62 21.5t23 52.5v13q0 44 27 75.5t81 68.5q76 52 125 106
t49 148q0 88 -46 147.5t-122 90t-166 30.5q-136 0 -222 -54t-106 -127q-4 -13 -6.5 -25.5t-2.5 -26.5q0 -35 23 -53.5t49 -18.5q45 0 61.5 20.5t41.5 50.5q24 43 63.5 67.5t91.5 24.5q72 0 115 -37.5t43 -96.5q0 -54 -33 -88.5t-103 -82.5q-57 -39 -94.5 -86.5t-37.5 -124.5
v-13q0 -82 84 -82zM1183 204q44 0 78 30.5t34 77.5t-34 77.5t-78 30.5t-78 -30.5t-34 -77.5q0 -46 34.5 -77t77.5 -31z" />
    <glyph glyph-name="uniF31E" unicode="&#xf31e;" 
d="M1199 -298q-209 0 -393.5 80t-325.5 221t-221 325.5t-80 393.5t80 393.5t220.5 325.5t325 221t393.5 80t394 -80t326 -221t221 -325.5t80 -393.5t-80 -393.5t-221 -325.5t-325.5 -221t-393.5 -80zM1199 -128q177 0 331 65.5t270.5 182.5t182.5 271t66 331t-66 331
t-182.5 271t-271 182.5t-331.5 65.5t-331 -65.5t-270 -182.5t-181.5 -271t-65.5 -331t65.5 -331t182 -271t270.5 -182.5t331 -65.5zM1023 354q-33 -19 -63.5 -7t-30.5 46v655q0 34 31.5 46t62.5 -6l535 -317q29 -16 29 -50t-29 -51z" />
    <glyph glyph-name="uniF31F" unicode="&#xf31f;" 
d="M1199 -298q-209 0 -393.5 80t-325.5 221t-221 325.5t-80 393.5t80 393.5t220.5 325.5t325 221t393.5 80t394 -80t326 -221t221 -325.5t80 -393.5t-80 -393.5t-221 -325.5t-325.5 -221t-393.5 -80zM1199 -128q177 0 331 65.5t270.5 182.5t182.5 271t66 331t-66 331
t-182.5 271t-271 182.5t-331.5 65.5t-331 -65.5t-270 -182.5t-181.5 -271t-65.5 -331t65.5 -331t182 -271t270.5 -182.5t331 -65.5zM925 343q-37 0 -53.5 18t-16.5 46v629q0 29 17 46.5t53 17.5h95q36 0 52.5 -17.5t16.5 -46.5v-629q0 -28 -16.5 -46t-52.5 -18h-95z
M1377 343q-35 0 -52.5 18t-17.5 46v629q0 29 17.5 46.5t52.5 17.5h95q35 0 52 -17.5t17 -46.5v-629q0 -28 -17 -46t-52 -18h-95z" />
    <glyph glyph-name="uniF320" unicode="&#xf320;" 
d="M1199 -298q-209 0 -393.5 80t-325.5 221t-221 325.5t-80 393.5t80 393.5t220.5 325.5t325 221t393.5 80t394 -80t326 -221t221 -325.5t80 -393.5t-80 -393.5t-221 -325.5t-325.5 -221t-393.5 -80zM1199 -128q177 0 331 65.5t270.5 182.5t182.5 271t66 331t-66 331
t-182.5 271t-271 182.5t-331.5 65.5t-331 -65.5t-270 -182.5t-181.5 -271t-65.5 -331t65.5 -331t182 -271t270.5 -182.5t331 -65.5zM846 464v516q0 44 26 69.5t71 25.5h512q45 0 71 -25.5t26 -69.5v-516q0 -44 -26 -69.5t-71 -25.5h-512q-45 0 -71 25.5t-26 69.5z" />
    <glyph glyph-name="uniF321" unicode="&#xf321;" horiz-adv-x="1676" 
d="M818 876q-30 0 -50.5 21.5t-20.5 52.5q0 30 20 50l210 206q-60 12 -139 12q-115 0 -215.5 -43t-176.5 -119.5t-119 -177t-43 -215.5t43 -215.5t119 -177t176.5 -119.5t215.5 -43t215.5 43t176.5 119.5t119 177t43 215.5q0 32 19 53.5t50 21.5q33 0 54 -21.5t21 -53.5
q0 -145 -54 -272t-150 -223t-222.5 -150t-271.5 -54t-271.5 54t-222.5 150t-150 223t-54 272t54 272t150 223t222.5 150t271.5 54q57 0 115 -10l-186 181q-19 20 -19 51t20 52.5t50 21.5q32 0 52 -22l316 -320q21 -21 21 -52t-21 -52l-316 -316q-20 -20 -52 -20z" />
    <glyph glyph-name="uniF32A" unicode="&#xf32a;" 
d="M1199 -298q-209 0 -393.5 80t-325.5 221t-221 325.5t-80 393.5t80 393.5t220.5 325.5t325 221t393.5 80t394 -80t326 -221t221 -325.5t80 -393.5t-80 -393.5t-221 -325.5t-325.5 -221t-393.5 -80zM1199 -128q177 0 331 65.5t270.5 182.5t182.5 271t66 331t-66 331
t-182.5 271t-271 182.5t-331.5 65.5t-331 -65.5t-270 -182.5t-181.5 -271t-65.5 -331t65.5 -331t182 -271t270.5 -182.5t331 -65.5zM1190 1078q-55 0 -92.5 38.5t-37.5 92.5q0 55 38 93t92 38q55 0 92.5 -38t37.5 -93q0 -54 -37.5 -92.5t-92.5 -38.5zM1023 172q-30 0 -51 20
t-21 51q0 29 21 49.5t52 20.5h124v458h-107q-31 0 -52 20t-21 51q0 29 21 49.5t52 20.5h188q38 0 58 -24.5t20 -65.5v-509h124q31 0 52 -20.5t21 -49.5q0 -31 -21 -51t-52 -20h-408z" />
    <glyph glyph-name="uniF32B" unicode="&#xf32b;" 
d="M1199 -298q-209 0 -393.5 80t-325.5 221t-221 325.5t-80 393.5t80 393.5t220.5 325.5t325 221t393.5 80t394 -80t326 -221t221 -325.5t80 -393.5t-80 -393.5t-221 -325.5t-325.5 -221t-393.5 -80zM1199 -128q177 0 331 65.5t270.5 182.5t182.5 271t66 331t-66 331
t-182.5 271t-271 182.5t-331.5 65.5t-331 -65.5t-270 -182.5t-181.5 -271t-65.5 -331t65.5 -331t182 -271t270.5 -182.5t331 -65.5zM1199 205q-29 0 -58 29l-340 338q-20 20 -20 52q0 31 20.5 51.5t51.5 20.5t53 -22l124 -125l100 -120l-8 211v521q0 33 21.5 54t53.5 21
q33 0 54 -21t21 -54v-521l-8 -212l101 121l123 125q20 22 53 22q31 0 52 -20.5t21 -51.5t-21 -52l-339 -338q-14 -14 -26 -21.5t-29 -7.5z" />
    <glyph glyph-name="uniF32C" unicode="&#xf32c;" 
d="M1199 -298q-209 0 -393.5 80t-325.5 221t-221 325.5t-80 393.5t80 393.5t220.5 325.5t325 221t393.5 80t394 -80t326 -221t221 -325.5t80 -393.5t-80 -393.5t-221 -325.5t-325.5 -221t-393.5 -80zM1199 -128q177 0 331 65.5t270.5 182.5t182.5 271t66 331t-66 331
t-182.5 271t-271 182.5t-331.5 65.5t-331 -65.5t-270 -182.5t-181.5 -271t-65.5 -331t65.5 -331t182 -271t270.5 -182.5t331 -65.5z" />
    <glyph glyph-name="uniF32D" unicode="&#xf32d;" horiz-adv-x="1477" 
d="M1277 251q0 -36 -25 -61t-57 -25t-56 24.5t-24 55.5v198l17 383l-127 -147l-668 -668q-24 -24 -56 -24q-33 0 -57.5 25.5t-24.5 56.5t25 56l667 668l147 127l-386 -16h-194q-31 0 -55 24t-24 55q0 32 23 56t60 24l729 2q40 0 63 -23.5t23 -61.5v-729z" />
    <glyph glyph-name="uniF32E" unicode="&#xf32e;" horiz-adv-x="1807" 
d="M903 612q-28 0 -50.5 20.5t-22.5 48.5v781l6 119l-42 -45l-110 -119q-19 -21 -49 -21q-28 0 -46 17.5t-18 45.5q0 26 21 47l258 247q24 24 52 24t52 -24l258 -247q21 -21 21 -47q0 -28 -18.5 -45.5t-46.5 -17.5t-48 21l-110 119l-42 45l6 -119v-781q0 -28 -21 -48.5
t-50 -20.5zM455 -8q-255 0 -255 251v768q0 251 255 251h215v-144h-213q-113 0 -113 -115v-752q0 -115 113 -115h893q113 0 113 115v752q0 115 -113 115h-213v144h215q255 0 255 -251v-768q0 -251 -255 -251h-897z" />
    <glyph glyph-name="uniF330" unicode="&#xf330;" 
d="M1199 -298q-209 0 -393.5 80t-325.5 221t-221 325.5t-80 393.5t80 393.5t221 325.5t326 221t394 80t393.5 -80t325 -221t220.5 -325.5t80 -393.5t-80 -393.5t-221 -325.5t-325.5 -221t-393.5 -80zM1199 -128q177 0 331 65.5t270.5 182.5t182 271t65.5 331t-65.5 331
t-181.5 271t-270 182.5t-331 65.5t-331.5 -65.5t-271 -182.5t-182.5 -271t-66 -331t66 -331t182.5 -271t270.5 -182.5t331 -65.5zM1220 515q-37 0 -58.5 20.5t-21.5 50.5v12q0 42 -24.5 73t-77.5 65q-73 48 -119.5 100.5t-46.5 141.5q0 83 44 140t116.5 86.5t157.5 29.5
q129 0 210.5 -52t101.5 -121q4 -12 6.5 -24.5t2.5 -25.5q0 -34 -22 -51.5t-47 -17.5q-43 0 -58.5 20t-39.5 48q-25 41 -61.5 64.5t-86.5 23.5q-68 0 -109.5 -35.5t-41.5 -92.5q0 -51 32 -83.5t98 -78.5q54 -37 89.5 -82t35.5 -119v-13q0 -79 -80 -79zM1222 216
q-43 0 -75.5 30.5t-32.5 73.5q0 44 32 74t76 30t76 -30.5t32 -73.5t-32 -73.5t-76 -30.5z" />
    <glyph glyph-name="uniF331" unicode="&#xf331;" 
d="M1199 -298q-209 0 -393.5 80t-325.5 221t-221 325.5t-80 393.5t80 393.5t221 325.5t326 221t394 80t393.5 -80t325 -221t220.5 -325.5t80 -393.5t-80 -393.5t-221 -325.5t-325.5 -221t-393.5 -80zM1218 505q85 0 85 82v13q0 77 -37.5 124.5t-94.5 86.5q-70 48 -103 82.5
t-33 88.5q0 59 43 96.5t115 37.5q53 0 92 -24.5t63 -67.5q26 -30 42 -50.5t61 -20.5q26 0 49 18.5t23 53.5q0 14 -2.5 26.5t-6.5 25.5q-20 73 -106 127t-222 54q-89 0 -165.5 -30.5t-122.5 -90t-46 -147.5q0 -94 49 -148t125 -106q54 -37 81 -68.5t27 -75.5v-13
q0 -31 22 -52.5t62 -21.5zM1215 204q43 0 77.5 31t34.5 77q0 47 -34 77.5t-78 30.5t-78 -30.5t-34 -77.5t34.5 -77.5t77.5 -30.5z" />
    <glyph glyph-name="uniF332" unicode="&#xf332;" horiz-adv-x="1271" 
d="M674 404q-47 0 -70 29t-23 72v13q-1 50 -15.5 84t-49.5 65.5t-96 72.5q-97 65 -159 149t-62 201q0 122 59.5 205t159.5 126t221 43q132 0 242 -57t164 -170q14 -28 19.5 -55.5t5.5 -52.5q0 -38 -21.5 -62.5t-63.5 -24.5q-69 0 -90 70q-34 107 -98.5 145.5t-150.5 38.5
q-109 0 -183.5 -54.5t-74.5 -149.5q0 -85 47.5 -135t115.5 -97q89 -61 153.5 -136t64.5 -180v-41q0 -43 -24 -71t-71 -28zM675 -34q-52 0 -88.5 36.5t-36.5 88.5q0 53 36.5 89t88.5 36t88.5 -36t36.5 -89q0 -52 -36.5 -88.5t-88.5 -36.5z" />
    <glyph glyph-name="uniF333" unicode="&#xf333;" horiz-adv-x="1477" 
d="M201 249l-1 732q0 38 22.5 61.5t62.5 23.5l729 -2q38 0 60.5 -24t22.5 -56q0 -31 -24 -55t-55 -24h-194l-386 16l147 -127l667 -668q25 -25 25 -56t-24.5 -56.5t-57.5 -25.5q-32 0 -56 24l-668 668l-127 147l17 -383v-198q0 -31 -24 -55.5t-56 -24.5q-31 0 -55.5 23.5
t-24.5 59.5z" />
    <glyph glyph-name="uniF342" unicode="&#xf342;" 
d="M1199 -298q-209 0 -393.5 80t-325.5 221t-221 325.5t-80 393.5t80 393.5t220.5 325.5t325 221t393.5 80t394 -80t326 -221t221 -325.5t80 -393.5t-80 -393.5t-221 -325.5t-325.5 -221t-393.5 -80zM1199 -128q177 0 331 65.5t270.5 182.5t182.5 271t66 331t-66 331
t-182.5 271t-271 182.5t-331.5 65.5t-331 -65.5t-270 -182.5t-181.5 -271t-65.5 -331t65.5 -331t182 -271t270.5 -182.5t331 -65.5zM1237 264q-79 0 -79 90v677h-7l-129 -85q-17 -12 -27.5 -15t-22.5 -3q-23 0 -39.5 16t-16.5 41q0 34 31 54l180 122q58 39 106 39
q85 0 85 -90v-756q0 -90 -81 -90z" />
    <glyph glyph-name="uniF343" unicode="&#xf343;" 
d="M1199 -298q-209 0 -393.5 80t-325.5 221t-221 325.5t-80 393.5t80 393.5t220.5 325.5t325 221t393.5 80t394 -80t326 -221t221 -325.5t80 -393.5t-80 -393.5t-221 -325.5t-325.5 -221t-393.5 -80zM1199 -128q177 0 331 65.5t270.5 182.5t182.5 271t66 331t-66 331
t-182.5 271t-271 182.5t-331.5 65.5t-331 -65.5t-270 -182.5t-181.5 -271t-65.5 -331t65.5 -331t182 -271t270.5 -182.5t331 -65.5zM945 275q-70 0 -70 65q0 33 26 60l320 345q44 47 82 96t38 104q0 62 -43.5 100t-114.5 38q-130 0 -178 -124q-11 -25 -26.5 -39t-41.5 -14
q-32 0 -49.5 18.5t-17.5 48.5q0 10 2 20l4 20q23 85 108.5 141t191.5 56q143 0 227.5 -68.5t84.5 -184.5q0 -83 -44.5 -150t-111.5 -138l-238 -255v-7h365q29 0 48 -17.5t19 -48.5q0 -30 -19 -48t-48 -18h-514z" />
    <glyph glyph-name="uniF344" unicode="&#xf344;" 
d="M1199 -298q-209 0 -393.5 80t-325.5 221t-221 325.5t-80 393.5t80 393.5t220.5 325.5t325 221t393.5 80t394 -80t326 -221t221 -325.5t80 -393.5t-80 -393.5t-221 -325.5t-325.5 -221t-393.5 -80zM1199 -128q177 0 331 65.5t270.5 182.5t182.5 271t66 331t-66 331
t-182.5 271t-271 182.5t-331.5 65.5t-331 -65.5t-270 -182.5t-181.5 -271t-65.5 -331t65.5 -331t182 -271t270.5 -182.5t331 -65.5zM1188 252q-122 0 -212 54t-112 141q-5 18 -5 40q0 30 19.5 48t49.5 18q49 0 69 -52q44 -122 193 -122q85 0 140 43.5t55 109.5
q0 68 -52.5 110t-137.5 42h-68q-27 0 -45 18t-18 44q0 27 18 44.5t45 17.5h63q72 0 118.5 40.5t46.5 102.5q0 59 -45 95.5t-116 36.5q-141 0 -178 -122q-16 -52 -68 -52q-30 0 -49.5 18t-19.5 48q0 11 1.5 20.5t3.5 19.5q20 89 105.5 141.5t207.5 52.5q134 0 220 -67.5
t86 -174.5q0 -78 -51.5 -139.5t-126.5 -72.5v-7q91 -8 150.5 -71.5t59.5 -151.5q0 -121 -97 -197t-250 -76z" />
    <glyph glyph-name="uniF345" unicode="&#xf345;" 
d="M1199 -298q-209 0 -393.5 80t-325.5 221t-221 325.5t-80 393.5t80 393.5t220.5 325.5t325 221t393.5 80t394 -80t326 -221t221 -325.5t80 -393.5t-80 -393.5t-221 -325.5t-325.5 -221t-393.5 -80zM1199 -128q177 0 331 65.5t270.5 182.5t182.5 271t66 331t-66 331
t-182.5 271t-271 182.5t-331.5 65.5t-331 -65.5t-270 -182.5t-181.5 -271t-65.5 -331t65.5 -331t182 -271t270.5 -182.5t331 -65.5zM1324 264q-34 0 -53 23t-19 62v107h-359q-48 0 -76 27t-28 72q0 39 27 87q41 68 93.5 151t109 169.5t107.5 164.5q30 46 65.5 65.5
t88.5 19.5t86 -29t33 -76v-520h76q30 0 48.5 -18.5t18.5 -47.5t-19 -47.5t-48 -18.5h-76v-107q0 -84 -75 -84zM1251 585v495h-7q-52 -79 -109.5 -167t-109.5 -172t-90 -150v-6h316z" />
    <glyph glyph-name="uniF346" unicode="&#xf346;" 
d="M1199 -298q-209 0 -393.5 80t-325.5 221t-221 325.5t-80 393.5t80 393.5t220.5 325.5t325 221t393.5 80t394 -80t326 -221t221 -325.5t80 -393.5t-80 -393.5t-221 -325.5t-325.5 -221t-393.5 -80zM1199 -128q177 0 331 65.5t270.5 182.5t182.5 271t66 331t-66 331
t-182.5 271t-271 182.5t-331.5 65.5t-331 -65.5t-270 -182.5t-181.5 -271t-65.5 -331t65.5 -331t182 -271t270.5 -182.5t331 -65.5zM1179 252q-112 0 -191.5 45t-110.5 121q-4 11 -7.5 23.5t-3.5 25.5q0 29 18.5 47t48.5 18q45 0 71 -47q54 -107 185 -107q83 0 138.5 55
t55.5 137q0 83 -48.5 133.5t-128.5 50.5q-72 0 -138 -56q-29 -22 -50 -30t-49 -8q-41 0 -65 26t-20 69l27 338q4 44 33.5 69t78.5 25h414q26 0 43 -17.5t17 -44.5t-17 -44.5t-43 -17.5h-399l-24 -277h7q27 38 83.5 62t117.5 24q137 0 223.5 -83t86.5 -217q0 -145 -96 -232.5
t-257 -87.5z" />
    <glyph glyph-name="uniF347" unicode="&#xf347;" 
d="M1199 -298q-209 0 -393.5 80t-325.5 221t-221 325.5t-80 393.5t80 393.5t220.5 325.5t325 221t393.5 80t394 -80t326 -221t221 -325.5t80 -393.5t-80 -393.5t-221 -325.5t-325.5 -221t-393.5 -80zM1199 -128q177 0 331 65.5t270.5 182.5t182.5 271t66 331t-66 331
t-182.5 271t-271 182.5t-331.5 65.5t-331 -65.5t-270 -182.5t-181.5 -271t-65.5 -331t65.5 -331t182 -271t270.5 -182.5t331 -65.5zM1206 252q-88 0 -165.5 35.5t-127.5 114.5q-31 51 -48.5 126.5t-17.5 178.5q0 254 103.5 378.5t279.5 124.5q98 0 171.5 -42.5t97.5 -97.5
q10 -23 10 -43q0 -26 -17.5 -42.5t-42.5 -16.5q-26 0 -44 12.5t-42 36.5q-22 26 -54 46t-84 20q-103 0 -166.5 -92t-63.5 -250v-10h8q25 55 84.5 97.5t159.5 42.5q79 0 148 -34.5t111.5 -100.5t42.5 -161q0 -154 -96 -238.5t-247 -84.5zM1199 373q89 0 140.5 53.5
t51.5 141.5q0 83 -53 136t-139 53q-85 0 -138.5 -53t-53.5 -135q0 -85 54 -140.5t138 -55.5z" />
    <glyph glyph-name="uniF348" unicode="&#xf348;" 
d="M1199 -298q-209 0 -393.5 80t-325.5 221t-221 325.5t-80 393.5t80 393.5t220.5 325.5t325 221t393.5 80t394 -80t326 -221t221 -325.5t80 -393.5t-80 -393.5t-221 -325.5t-325.5 -221t-393.5 -80zM1199 -128q177 0 331 65.5t270.5 182.5t182.5 271t66 331t-66 331
t-182.5 271t-271 182.5t-331.5 65.5t-331 -65.5t-270 -182.5t-181.5 -271t-65.5 -331t65.5 -331t182 -271t270.5 -182.5t331 -65.5zM1053 254q-34 0 -57 19.5t-23 50.5q0 26 14 51l370 679v8h-431q-25 0 -42.5 17.5t-17.5 44.5t17 44.5t43 17.5h495q49 0 78.5 -27.5
t29.5 -68.5q0 -16 -5 -33.5t-19 -44.5l-374 -704q-29 -54 -78 -54z" />
    <glyph glyph-name="uniF349" unicode="&#xf349;" 
d="M1199 -298q-209 0 -393.5 80t-325.5 221t-221 325.5t-80 393.5t80 393.5t220.5 325.5t325 221t393.5 80t394 -80t326 -221t221 -325.5t80 -393.5t-80 -393.5t-221 -325.5t-325.5 -221t-393.5 -80zM1199 -128q177 0 331 65.5t270.5 182.5t182.5 271t66 331t-66 331
t-182.5 271t-271 182.5t-331.5 65.5t-331 -65.5t-270 -182.5t-181.5 -271t-65.5 -331t65.5 -331t182 -271t270.5 -182.5t331 -65.5zM1196 252q-160 0 -258.5 75.5t-98.5 196.5q0 85 56 148.5t147 81.5v6q-77 23 -120.5 77.5t-43.5 127.5q0 108 89.5 176.5t230.5 68.5
t230.5 -68.5t89.5 -176.5q0 -73 -44 -128t-120 -77v-6q90 -18 146.5 -81t56.5 -148q0 -121 -100 -197t-261 -76zM1198 805q75 0 123 41t48 105q0 65 -47.5 106t-123.5 41t-123.5 -41t-47.5 -106q0 -64 48 -105t123 -41zM1199 363q89 0 147 48.5t58 121.5t-57.5 119.5
t-147.5 46.5q-88 0 -147 -47t-59 -119q0 -73 58.5 -121.5t147.5 -48.5z" />
    <glyph glyph-name="uniF34A" unicode="&#xf34a;" 
d="M1199 -298q-209 0 -393.5 80t-325.5 221t-221 325.5t-80 393.5t80 393.5t220.5 325.5t325 221t393.5 80t394 -80t326 -221t221 -325.5t80 -393.5t-80 -393.5t-221 -325.5t-325.5 -221t-393.5 -80zM1199 -128q177 0 331 65.5t270.5 182.5t182.5 271t66 331t-66 331
t-182.5 271t-271 182.5t-331.5 65.5t-331 -65.5t-270 -182.5t-181.5 -271t-65.5 -331t65.5 -331t182 -271t270.5 -182.5t331 -65.5zM1173 252q-128 0 -200 50.5t-89 102.5q-7 21 -7 34q0 29 18.5 46.5t46.5 17.5q43 0 77 -44q26 -37 63 -58.5t89 -21.5q105 0 169 94.5
t62 257.5h-8q-24 -56 -83.5 -98.5t-160.5 -42.5q-79 0 -148 34.5t-111.5 101t-42.5 161.5q0 147 93.5 234.5t249.5 87.5q170 0 264 -115t94 -333q0 -251 -97 -380t-279 -129zM1197 704q85 0 138.5 53t53.5 135q0 86 -54.5 141t-137.5 55q-87 0 -140 -53t-53 -141
q0 -83 54 -136.5t139 -53.5z" />
    <glyph glyph-name="uniF34B" unicode="&#xf34b;" 
d="M1199 -298q-209 0 -393.5 80t-325.5 221t-221 325.5t-80 393.5t80 393.5t220.5 325.5t325 221t393.5 80t394 -80t326 -221t221 -325.5t80 -393.5t-80 -393.5t-221 -325.5t-325.5 -221t-393.5 -80zM1199 -128q177 0 331 65.5t270.5 182.5t182.5 271t66 331t-66 331
t-182.5 271t-271 182.5t-331.5 65.5t-331 -65.5t-270 -182.5t-181.5 -271t-65.5 -331t65.5 -331t182 -271t270.5 -182.5t331 -65.5zM1443 266q-141 0 -227 125t-86 330q0 208 85.5 333t227.5 125t227.5 -125t85.5 -333q0 -205 -85.5 -330t-227.5 -125zM895 280q-31 0 -48 21
t-17 52v653h-6l-114 -83q-18 -14 -28.5 -17t-22.5 -3q-23 0 -42 18.5t-19 45.5q0 37 35 61l161 109q29 20 49 28.5t44 8.5q75 0 75 -86v-735q0 -31 -17 -52t-50 -21zM1443 392q81 0 128 88t47 241q0 155 -46.5 243.5t-128.5 88.5t-128.5 -88.5t-46.5 -243.5q0 -153 47 -241
t128 -88z" />
    <glyph glyph-name="uniF34C" unicode="&#xf34c;" 
d="M1199 -298q-209 0 -393.5 80t-325.5 221t-221 325.5t-80 393.5t80 393.5t220.5 325.5t325 221t393.5 80t394 -80t326 -221t221 -325.5t80 -393.5t-80 -393.5t-221 -325.5t-325.5 -221t-393.5 -80zM1199 -128q177 0 331 65.5t270.5 182.5t182.5 271t66 331t-66 331
t-182.5 271t-271 182.5t-331.5 65.5t-331 -65.5t-270 -182.5t-181.5 -271t-65.5 -331t65.5 -331t182 -271t270.5 -182.5t331 -65.5zM1530 285q-31 0 -48 21t-17 52v653h-6l-114 -83q-18 -14 -28.5 -17t-22.5 -3q-23 0 -42 18.5t-19 45.5q0 37 35 61l161 109q29 20 49 28.5
t44 8.5q75 0 75 -86v-735q0 -31 -17 -52t-50 -21zM975 285q-31 0 -48 21t-17 52v653h-6l-114 -83q-18 -14 -28.5 -17t-22.5 -3q-23 0 -42 18.5t-19 45.5q0 37 35 61l161 109q29 20 49 28.5t44 8.5q75 0 75 -86v-735q0 -31 -17 -52t-50 -21z" />
    <glyph glyph-name="uniF34D" unicode="&#xf34d;" 
d="M1199 -298q-209 0 -393.5 80t-325.5 221t-221 325.5t-80 393.5t80 393.5t220.5 325.5t325 221t393.5 80t394 -80t326 -221t221 -325.5t80 -393.5t-80 -393.5t-221 -325.5t-325.5 -221t-393.5 -80zM1199 -128q177 0 331 65.5t270.5 182.5t182.5 271t66 331t-66 331
t-182.5 271t-271 182.5t-331.5 65.5t-331 -65.5t-270 -182.5t-181.5 -271t-65.5 -331t65.5 -331t182 -271t270.5 -182.5t331 -65.5zM1213 288q-61 0 -61 62q0 31 23 57l284 329q39 44 72.5 91.5t33.5 99.5q0 60 -38.5 96t-102.5 36q-117 0 -159 -119q-20 -50 -59 -50
q-59 0 -59 63q0 10 2 19t4 19q20 82 95.5 135.5t169.5 53.5q125 0 199.5 -66t74.5 -176q0 -79 -39 -142.5t-98 -131.5l-213 -244v-7h314q25 0 42 -16.5t17 -45.5q0 -28 -17 -45.5t-42 -17.5h-443zM898 277q-31 0 -48 21t-17 52v653h-6l-114 -83q-18 -14 -28.5 -17t-22.5 -3
q-23 0 -42 18.5t-19 45.5q0 37 35 61l161 109q29 20 49 28.5t44 8.5q75 0 75 -86v-735q0 -31 -17 -52t-50 -21z" />
    <glyph glyph-name="uniF34E" unicode="&#xf34e;" 
d="M1199 -298q-209 0 -393.5 80t-325.5 221t-221 325.5t-80 393.5t80 393.5t220.5 325.5t325 221t393.5 80t394 -80t326 -221t221 -325.5t80 -393.5t-80 -393.5t-221 -325.5t-325.5 -221t-393.5 -80zM1199 -128q177 0 331 65.5t270.5 182.5t182.5 271t66 331t-66 331
t-182.5 271t-271 182.5t-331.5 65.5t-331 -65.5t-270 -182.5t-181.5 -271t-65.5 -331t65.5 -331t182 -271t270.5 -182.5t331 -65.5zM1468 266q-109 0 -187 55.5t-99 130.5q-5 16 -5 38q0 29 17.5 46t42.5 17q41 0 60 -50q41 -117 171 -117q77 0 125.5 42t48.5 105
q0 65 -45.5 104t-121.5 39h-62q-25 0 -41 18t-16 43q0 27 16 44t41 17h58q64 0 104.5 38t40.5 97q0 56 -40 91.5t-104 35.5q-126 0 -158 -117q-15 -50 -59 -50q-26 0 -43 17.5t-17 45.5q0 21 4 38q19 77 93.5 131t182.5 54q119 0 194 -64.5t75 -166.5q0 -74 -45 -132.5
t-112 -69.5v-7q80 -7 133 -68t53 -145q0 -115 -85.5 -187.5t-219.5 -72.5zM915 277q-31 0 -48 21t-17 52v653h-6l-114 -83q-18 -14 -28.5 -17t-22.5 -3q-23 0 -42 18.5t-19 45.5q0 37 35 61l161 109q29 20 49 28.5t44 8.5q75 0 75 -86v-735q0 -31 -17 -52t-50 -21z" />
    <glyph glyph-name="uniF34F" unicode="&#xf34f;" 
d="M1199 -298q-209 0 -393.5 80t-325.5 221t-221 325.5t-80 393.5t80 393.5t220.5 325.5t325 221t393.5 80t394 -80t326 -221t221 -325.5t80 -393.5t-80 -393.5t-221 -325.5t-325.5 -221t-393.5 -80zM1199 -128q177 0 331 65.5t270.5 182.5t182.5 271t66 331t-66 331
t-182.5 271t-271 182.5t-331.5 65.5t-331 -65.5t-270 -182.5t-181.5 -271t-65.5 -331t65.5 -331t182 -271t270.5 -182.5t331 -65.5zM1594 278q-62 0 -62 80v107h-310q-41 0 -65.5 23.5t-24.5 66.5q0 40 23 83q53 97 127 224.5t141 239.5q26 44 56.5 62t76.5 18t74.5 -27
t28.5 -72v-501h59q59 0 59 -59t-59 -59h-59v-107q0 -79 -65 -79zM905 277q-31 0 -48 21t-17 52v653h-6l-114 -83q-18 -14 -28.5 -17t-22.5 -3q-23 0 -42 18.5t-19 45.5q0 37 35 61l161 109q29 20 49 28.5t44 8.5q75 0 75 -86v-735q0 -31 -17 -52t-50 -21zM1531 580v458h-6
q-42 -71 -90 -153.5t-92 -161t-75 -138.5v-5h263z" />
    <glyph glyph-name="uniF350" unicode="&#xf350;" 
d="M1199 -298q-209 0 -393.5 80t-325.5 221t-221 325.5t-80 393.5t80 393.5t220.5 325.5t325 221t393.5 80t394 -80t326 -221t221 -325.5t80 -393.5t-80 -393.5t-221 -325.5t-325.5 -221t-393.5 -80zM1199 -128q177 0 331 65.5t270.5 182.5t182.5 271t66 331t-66 331
t-182.5 271t-271 182.5t-331.5 65.5t-331 -65.5t-270 -182.5t-181.5 -271t-65.5 -331t65.5 -331t182 -271t270.5 -182.5t331 -65.5zM895 278q-31 0 -48 21t-17 52v653h-6l-114 -83q-18 -14 -28.5 -17t-22.5 -3q-23 0 -42 18.5t-19 45.5q0 37 35 61l161 109q29 20 49 28.5
t44 8.5q75 0 75 -86v-735q0 -31 -17 -52t-50 -21zM1428 266q-99 0 -171 46t-95 113q-9 25 -9 47q0 26 16 43.5t42 17.5q38 0 61 -45q48 -102 166 -102q74 0 123.5 52.5t49.5 131.5t-43.5 127.5t-114.5 48.5q-64 0 -125 -54q-45 -36 -86 -36q-36 0 -56.5 25t-17.5 65l25 324
q8 89 96 89h365q23 0 37.5 -16.5t14.5 -42.5q0 -25 -15 -42t-37 -17h-352l-21 -266h6q24 36 74.5 59.5t103.5 23.5q122 0 198 -79.5t76 -206.5q0 -138 -84.5 -222t-226.5 -84z" />
    <glyph glyph-name="uniF351" unicode="&#xf351;" 
d="M1199 -298q-209 0 -393.5 80t-325.5 221t-221 325.5t-80 393.5t80 393.5t220.5 325.5t325 221t393.5 80t394 -80t326 -221t221 -325.5t80 -393.5t-80 -393.5t-221 -325.5t-325.5 -221t-393.5 -80zM1199 -128q177 0 331 65.5t270.5 182.5t182.5 271t66 331t-66 331
t-182.5 271t-271 182.5t-331.5 65.5t-331 -65.5t-270 -182.5t-181.5 -271t-65.5 -331t65.5 -331t182 -271t270.5 -182.5t331 -65.5zM1449 266q-79 0 -148.5 33.5t-111.5 109.5q-27 49 -42 121t-15 170q0 242 91 361t246 119q93 0 155 -40t83 -94q8 -21 8 -40
q0 -25 -15 -40.5t-37 -15.5q-23 0 -37 9.5t-29 30.5q-19 30 -52.5 50t-80.5 20q-91 0 -148 -88.5t-57 -239.5v-10h8q22 53 75 93.5t142 40.5q70 0 130.5 -33t98 -95.5t37.5 -153.5q0 -146 -84.5 -227t-216.5 -81zM883 277q-31 0 -48 21t-17 52v653h-6l-114 -83
q-18 -14 -28.5 -17t-22.5 -3q-23 0 -42 18.5t-19 45.5q0 37 35 61l161 109q29 20 49 28.5t44 8.5q75 0 75 -86v-735q0 -31 -17 -52t-50 -21zM1442 381q79 0 125 50.5t46 135.5q0 80 -47 130.5t-124 50.5q-76 0 -123.5 -50.5t-47.5 -129.5q0 -82 48 -134.5t123 -52.5z" />
    <glyph glyph-name="uniF352" unicode="&#xf352;" 
d="M1199 -298q-209 0 -393.5 80t-325.5 221t-221 325.5t-80 393.5t80 393.5t220.5 325.5t325 221t393.5 80t394 -80t326 -221t221 -325.5t80 -393.5t-80 -393.5t-221 -325.5t-325.5 -221t-393.5 -80zM1199 -128q177 0 331 65.5t270.5 182.5t182.5 271t66 331t-66 331
t-182.5 271t-271 182.5t-331.5 65.5t-331 -65.5t-270 -182.5t-181.5 -271t-65.5 -331t65.5 -331t182 -271t270.5 -182.5t331 -65.5zM917 278q-31 0 -48 21t-17 52v653h-6l-114 -83q-18 -14 -28.5 -17t-22.5 -3q-23 0 -42 18.5t-19 45.5q0 37 35 61l161 109q29 20 49 28.5
t44 8.5q75 0 75 -86v-735q0 -31 -17 -52t-50 -21zM1313 268q-29 0 -49.5 18.5t-20.5 48.5q0 23 12 48l329 649v8h-384q-22 0 -36.5 17t-14.5 42q0 26 14.5 42.5t36.5 16.5h439q42 0 67.5 -26t25.5 -65q0 -15 -4 -31.5t-16 -42.5l-332 -674q-25 -51 -67 -51z" />
    <glyph glyph-name="uniF353" unicode="&#xf353;" 
d="M1199 -298q-209 0 -393.5 80t-325.5 221t-221 325.5t-80 393.5t80 393.5t220.5 325.5t325 221t393.5 80t394 -80t326 -221t221 -325.5t80 -393.5t-80 -393.5t-221 -325.5t-325.5 -221t-393.5 -80zM1199 -128q177 0 331 65.5t270.5 182.5t182.5 271t66 331t-66 331
t-182.5 271t-271 182.5t-331.5 65.5t-331 -65.5t-270 -182.5t-181.5 -271t-65.5 -331t65.5 -331t182 -271t270.5 -182.5t331 -65.5zM1451 266q-138 0 -222 72t-84 187q0 81 47.5 142t132.5 78v6q-74 22 -111 74t-37 121q0 104 77.5 169t198.5 65q122 0 199 -65t77 -169
q0 -69 -37 -122t-111 -73v-6q85 -17 132.5 -77.5t47.5 -141.5q0 -115 -85.5 -187.5t-224.5 -72.5zM897 277q-31 0 -48 21t-17 52v653h-6l-114 -83q-18 -14 -28.5 -17t-22.5 -3q-23 0 -42 18.5t-19 45.5q0 37 35 61l161 109q29 20 49 28.5t44 8.5q75 0 75 -86v-735
q0 -31 -17 -52t-50 -21zM1453 793q62 0 102.5 39.5t40.5 100.5q0 62 -40 99.5t-103 37.5t-103 -37.5t-40 -99.5q0 -61 40.5 -100.5t102.5 -39.5zM1454 375q75 0 125 44.5t50 114.5t-49 114.5t-126 44.5q-76 0 -126 -45t-50 -114q0 -70 50 -114.5t126 -44.5z" />
    <glyph glyph-name="uniF354" unicode="&#xf354;" 
d="M1199 -298q-209 0 -393.5 80t-325.5 221t-221 325.5t-80 393.5t80 393.5t220.5 325.5t325 221t393.5 80t394 -80t326 -221t221 -325.5t80 -393.5t-80 -393.5t-221 -325.5t-325.5 -221t-393.5 -80zM1199 -128q177 0 331 65.5t270.5 182.5t182.5 271t66 331t-66 331
t-182.5 271t-271 182.5t-331.5 65.5t-331 -65.5t-270 -182.5t-181.5 -271t-65.5 -331t65.5 -331t182 -271t270.5 -182.5t331 -65.5zM1421 266q-75 0 -129 24t-85.5 58.5t-37.5 63.5q-1 8 -3 16.5t-2 15.5q0 27 15.5 44t39.5 17q41 0 64 -40q20 -35 55 -57t81 -22
q92 0 148.5 90.5t54.5 247.5h-7q-21 -55 -73.5 -95t-140.5 -40q-69 0 -128.5 33t-96.5 96.5t-37 153.5q0 140 81 223.5t216 83.5q147 0 228.5 -109.5t81.5 -317.5q0 -240 -84 -363t-241 -123zM891 277q-31 0 -48 21t-17 52v653h-6l-114 -83q-18 -14 -28.5 -17t-22.5 -3
q-23 0 -42 18.5t-19 45.5q0 37 35 61l161 109q29 20 49 28.5t44 8.5q75 0 75 -86v-735q0 -31 -17 -52t-50 -21zM1441 697q75 0 122 50.5t47 129.5q0 82 -47.5 134.5t-121.5 52.5q-76 0 -123 -50.5t-47 -134.5q0 -80 47 -131t123 -51z" />
    <glyph glyph-name="uniF355" unicode="&#xf355;" 
d="M1199 -298q-209 0 -393.5 80t-325.5 221t-221 325.5t-80 393.5t80 393.5t220.5 325.5t325 221t393.5 80t394 -80t326 -221t221 -325.5t80 -393.5t-80 -393.5t-221 -325.5t-325.5 -221t-393.5 -80zM1199 -128q177 0 331 65.5t270.5 182.5t182.5 271t66 331t-66 331
t-182.5 271t-271 182.5t-331.5 65.5t-331 -65.5t-270 -182.5t-181.5 -271t-65.5 -331t65.5 -331t182 -271t270.5 -182.5t331 -65.5zM650 288q-61 0 -61 62q0 31 23 57l284 330q39 44 72.5 91.5t33.5 99.5q0 60 -38.5 96t-102.5 36q-119 0 -159 -119q-20 -50 -59 -50
q-59 0 -59 63q0 10 2 19t4 19q20 81 95.5 135t169.5 54q125 0 199.5 -66t74.5 -176q0 -79 -39 -142.5t-98 -131.5l-213 -245v-7h314q25 0 42 -16.5t17 -45.5q0 -28 -17 -45.5t-42 -17.5h-443zM1533 266q-142 0 -227.5 125t-85.5 330q0 208 85.5 333t227.5 125t227.5 -125
t85.5 -333q0 -205 -85.5 -330t-227.5 -125zM1533 392q80 0 127.5 88t47.5 241q0 155 -46.5 243.5t-128.5 88.5t-128.5 -88.5t-46.5 -243.5q0 -153 47 -241t128 -88z" />
    <glyph glyph-name="uniF357" unicode="&#xf357;" horiz-adv-x="1561" 
d="M790 734q-57 0 -97 40t-40 96q0 30 11 50.5t28 36.5l75 74h-3q-101 0 -181.5 -49.5t-126.5 -135t-46 -195.5q0 -102 49.5 -186t133.5 -134t186 -50q103 0 187 50t134.5 134t50.5 186q0 65 41 105t102 40q62 0 103 -40t41 -105q0 -136 -51 -255t-141.5 -209.5t-209.5 -142
t-255 -51.5t-255 51.5t-209.5 142t-141.5 209.5t-51 255t48.5 253t135 205.5t202 138.5t249.5 51l-67 66q-17 17 -28 37t-11 50q0 58 40 98.5t97 40.5q53 0 92 -39l280 -287q45 -42 45 -102q0 -58 -45 -103l-280 -288q-38 -38 -92 -38z" />
    <glyph glyph-name="uniF358" unicode="&#xf358;" horiz-adv-x="1447" 
d="M324 75q-64 0 -94 31.5t-30 81.5v1068q0 50 30 81.5t94 31.5h157q64 0 93.5 -31t29.5 -82v-1068q0 -51 -29.5 -82t-93.5 -31h-157zM967 75q-64 0 -94 31t-30 82v1068q0 51 30 82t94 31h157q64 0 93.5 -31.5t29.5 -81.5v-1068q0 -50 -29.5 -81.5t-93.5 -31.5h-157z" />
    <glyph glyph-name="uniF359" unicode="&#xf359;" horiz-adv-x="1418" 
d="M341 59q-58 0 -99.5 39t-41.5 116v1010q0 77 41.5 117t99.5 40t108 -30l835 -485q56 -32 85 -63.5t29 -82.5t-29 -82.5t-85 -63.5l-835 -485q-50 -30 -108 -30z" />
    <glyph glyph-name="uniF35A" unicode="&#xf35a;" horiz-adv-x="1489" 
d="M1007 -119l-792 774q-29 29 -29 67q0 40 30 67l792 775q27 27 65 27q39 0 65 -26t26 -65q0 -37 -26 -65l-727 -712l727 -712q26 -28 26 -65q0 -39 -26 -65t-65 -26q-40 0 -66 26z" />
    <glyph glyph-name="uniF35B" unicode="&#xf35b;" horiz-adv-x="1489" 
d="M417 -147q-39 0 -64.5 26.5t-25.5 65.5q0 37 26 65l727 712l-727 712q-26 28 -26 65q0 39 26 65t65 26q38 0 65 -27l792 -774q29 -26 29 -67q0 -37 -30 -67l-792 -775q-27 -27 -65 -27z" />
    <glyph glyph-name="uniF35C" unicode="&#xf35c;" horiz-adv-x="2294" 
d="M319 668l683 267q35 14 74 27t72 13t72.5 -13t73.5 -27l682 -267q63 -25 63 -85q0 -44 -28.5 -73.5t-72.5 -29.5q-22 0 -49 9.5t-46 16.5l-695 272l-696 -272q-19 -7 -45.5 -16.5t-49.5 -9.5q-43 0 -72 29.5t-29 73.5q0 60 63 85z" />
    <glyph glyph-name="uniF35D" unicode="&#xf35d;" horiz-adv-x="2294" 
d="M319 778q-64 25 -64 85q0 44 29 73.5t72 29.5q23 0 49.5 -9t45.5 -17l696 -272l695 272q19 8 46 17t49 9q44 0 72.5 -29.5t28.5 -73.5q0 -60 -63 -85l-682 -267q-34 -13 -73.5 -26.5t-72.5 -13.5t-72 13.5t-74 26.5z" />
    <glyph glyph-name="uniF35E" unicode="&#xf35e;" horiz-adv-x="1920" 
d="M237 130l590 590l-590 590q-26 26 -26.5 65.5t26.5 66.5t66.5 26.5t65.5 -26.5l590 -590l590 590q26 26 65.5 26.5t66.5 -26.5t26.5 -66.5t-26.5 -65.5l-590 -590l590 -590q26 -26 26.5 -65.5t-26.5 -66.5t-66.5 -26.5t-65.5 26.5l-590 590l-590 -590
q-26 -26 -65.5 -26.5t-66.5 26.5t-26.5 66.5t26.5 65.5z" />
    <glyph glyph-name="uniF360" unicode="&#xf360;" horiz-adv-x="723" 
d="M478 328l-335 330q-28 27 -28 63q0 35 28 63l335 330q22 22 54 22t55 -22.5t23 -54.5t-25 -57l-288 -282l288 -282q25 -25 25 -57q0 -31 -23 -54t-55 -23q-28 0 -54 24z" />
    <glyph glyph-name="uniF361" unicode="&#xf361;" horiz-adv-x="723" 
d="M192 308q-32 0 -55 22t-23 53q0 32 25 57l288 282l-288 282q-25 25 -25 57t23 54.5t55 22.5q30 0 54 -22l335 -330q28 -27 28 -63t-28 -63l-335 -330q-22 -22 -54 -22z" />
    <glyph glyph-name="uniF362" unicode="&#xf362;" horiz-adv-x="1126" 
d="M168 717l308 135q25 11 45 18.5t43 7.5t43 -7.5t45 -18.5l307 -135q48 -21 48 -69q0 -39 -25 -62.5t-57 -23.5q-19 0 -40.5 9t-41.5 18l-279 122l-280 -122q-19 -9 -41 -18t-41 -9q-32 0 -57 23.5t-25 62.5q0 48 48 69z" />
    <glyph glyph-name="uniF363" unicode="&#xf363;" horiz-adv-x="1126" 
d="M168 730q-49 22 -49 69q0 39 25 62.5t57 23.5q19 0 40.5 -9t41.5 -18l280 -122l279 122q20 9 41.5 18t40.5 9q32 0 57 -23.5t25 -62.5q0 -48 -48 -69l-307 -135q-25 -11 -45 -18.5t-43 -7.5t-43 7.5t-45 18.5z" />
    <glyph glyph-name="uniF364" unicode="&#xf364;" horiz-adv-x="1067" 
d="M165 459l262 262l-262 261q-21 21 -21 52.5t22 53.5t53.5 22t52.5 -21l262 -261l261 261q21 21 52.5 21t53.5 -22t22 -53.5t-21 -52.5l-261 -261l261 -262q21 -21 21 -52.5t-22 -53.5t-53.5 -22t-52.5 21l-261 262l-262 -262q-21 -21 -52.5 -21t-53.5 22t-22 53.5
t21 52.5z" />
    <glyph glyph-name="uniF8FF" unicode="&#xf8ff;" horiz-adv-x="1861" 
d="M1159 1292q-39 -47 -98 -78.5t-112 -31.5q-11 0 -21 2q-1 3 -2 11t-1 17q0 60 26 116.5t59 93.5q42 50 106 83t122 35q3 -13 3 -31q0 -60 -23 -116.5t-59 -100.5zM1214 1165q22 0 75 -7t116.5 -39.5t115.5 -107.5q-3 -3 -29 -21.5t-58 -54t-56 -90t-24 -129.5
q0 -86 30.5 -146t71 -96.5t72 -53.5t33.5 -18q-1 -4 -25.5 -71t-80.5 -149q-49 -71 -105.5 -131t-135.5 -60q-53 0 -87 15.5t-70 31t-97 15.5q-59 0 -98.5 -16t-75 -32t-83.5 -16q-73 0 -128 58t-113 139q-67 96 -114.5 234.5t-47.5 279.5q0 151 57 253.5t146.5 155
t185.5 52.5q51 0 96 -16.5t84.5 -33.5t71.5 -17q31 0 72 18t92 35.5t109 17.5z" />
    <glyph glyph-name="u100076" unicode="&#x100076;" 
d="M1199 -298q-209 0 -393.5 80t-325.5 220.5t-221 325.5t-80 394t79.5 393.5t220.5 325.5t325.5 221t393.5 80t393.5 -80t325.5 -221t221.5 -325.5t80.5 -393.5t-80 -394t-221 -325.5t-325.5 -220.5t-393.5 -80zM1199 -128q177 0 331 65.5t271 182t182.5 271t65.5 331.5
q-1 176 -66.5 330.5t-182.5 271t-271 182.5t-331 66t-331 -66t-270 -182.5t-181.5 -271t-65.5 -330.5q0 -177 65.5 -331.5t182 -271t270.5 -182t331 -65.5zM1199 1236q30 0 59 -28l338 -338q21 -21 21 -52t-21 -51.5t-52 -20.5q-33 0 -53 22l-124 125l-101 121l8 -212v-521
q0 -33 -21.5 -54t-53.5 -21q-33 0 -54 21t-21 54v521l8 211l-101 -120l-124 -125q-22 -22 -53 -22t-51.5 20.5t-20.5 51.5q0 32 19 52l340 338q29 28 58 28z" />
    <glyph glyph-name="glyph3" horiz-adv-x="420" 
 />
  </font>
</defs>
</svg>
